<svg width="207" height="208" viewBox="0 0 207 208" fill="none" xmlns="http://www.w3.org/2000/svg">
<path d="M75.32 205.56C64.3973 205.56 54.072 203.939 44.344 200.696C34.7867 197.283 26.424 192.589 19.256 186.616C12.088 180.643 6.79733 173.645 3.384 165.624C1.67733 162.381 1.592 159.395 3.128 156.664C4.83467 153.933 7.56533 152.141 11.32 151.288C14.2213 150.605 17.0373 151.032 19.768 152.568C22.4987 153.933 24.5467 156.067 25.912 158.968C28.1307 163.576 31.6293 167.757 36.408 171.512C41.1867 175.096 46.904 177.997 53.56 180.216C60.3867 182.435 67.64 183.544 75.32 183.544C83.8533 183.544 91.5333 182.179 98.36 179.448C105.357 176.717 110.904 172.792 115 167.672C119.267 162.381 121.4 155.981 121.4 148.472C121.4 138.915 117.731 130.467 110.392 123.128C103.053 115.789 91.2773 111.181 75.064 109.304C54.4133 107.085 38.2 100.856 26.424 90.616C14.648 80.376 8.76 67.7467 8.76 52.728C8.76 41.8053 11.7467 32.504 17.72 24.824C23.6933 16.9733 31.8853 11 42.296 6.90399C52.7067 2.80799 64.4827 0.759995 77.624 0.759995C87.5227 0.759995 96.312 2.21066 103.992 5.11198C111.843 8.01332 118.584 12.024 124.216 17.144C130.019 22.0933 134.968 27.8107 139.064 34.296C141.112 37.7093 141.88 40.952 141.368 44.024C141.027 46.9253 139.491 49.2293 136.76 50.936C133.688 52.6427 130.445 52.984 127.032 51.96C123.789 50.936 121.315 48.9733 119.608 46.072C117.048 41.464 113.805 37.4533 109.88 34.04C105.955 30.6267 101.261 27.896 95.8 25.848C90.5093 23.8 84.1947 22.776 76.856 22.776C63.8853 22.6053 53.2187 25.1653 44.856 30.456C36.4933 35.576 32.312 43.3413 32.312 53.752C32.312 59.2133 33.6773 64.3333 36.408 69.112C39.3093 73.72 44.2587 77.816 51.256 81.4C58.424 84.8133 68.408 87.288 81.208 88.824C101.859 91.2133 117.645 97.528 128.568 107.768C139.491 117.837 144.952 131.149 144.952 147.704C144.952 157.261 143.075 165.624 139.32 172.792C135.736 179.96 130.701 186.019 124.216 190.968C117.731 195.747 110.221 199.416 101.688 201.976C93.3253 204.365 84.536 205.56 75.32 205.56Z" fill="white"/>
<path d="M189.94 207.096C185.332 207.096 181.407 205.475 178.164 202.232C174.921 198.989 173.3 195.064 173.3 190.456C173.3 185.848 174.921 181.923 178.164 178.68C181.577 175.267 185.503 173.56 189.94 173.56C194.548 173.56 198.473 175.267 201.716 178.68C204.959 181.923 206.58 185.848 206.58 190.456C206.58 194.893 204.959 198.819 201.716 202.232C198.473 205.475 194.548 207.096 189.94 207.096Z" fill="#EF971A"/>
</svg>
