<svg width="895" height="309" viewBox="0 0 895 309" fill="none" xmlns="http://www.w3.org/2000/svg">
<path d="M204.983 196.253C204.157 225.872 171.522 234.388 146.695 249.576C121.867 264.765 80.4628 296.493 56.0149 287.386C31.5671 278.279 0.546274 230.551 0.00764024 194.936C-0.530994 159.321 27.5094 94.2077 52.7831 73.6954C78.0569 53.183 126.284 51.4354 151.65 71.8617C177.017 92.2879 205.809 166.634 204.983 196.253C204.157 225.872 171.522 234.388 146.695 249.576Z" fill="#EF971A"/>
<path d="M102.216 250.024C90.952 250.024 80.2853 248.317 70.216 244.904C60.1467 241.32 52.2107 236.456 46.408 230.312C44.1893 227.752 43.2507 224.936 43.592 221.864C43.9333 218.792 45.4693 216.147 48.2 213.928C51.1013 211.709 54.088 210.771 57.16 211.112C60.232 211.453 62.792 212.819 64.84 215.208C68.2533 218.963 73.2027 222.205 79.688 224.936C86.344 227.667 93.5973 229.032 101.448 229.032C112.541 229.032 120.733 227.24 126.024 223.656C131.485 219.901 134.301 215.293 134.472 209.832C134.472 204.2 131.827 199.507 126.536 195.752C121.245 191.827 111.944 188.755 98.632 186.536C81.3947 183.293 68.8507 178.259 61 171.432C53.1493 164.605 49.224 156.328 49.224 146.6C49.224 137.896 51.6133 130.728 56.392 125.096C61.3413 119.293 67.7413 115.027 75.592 112.296C83.6133 109.395 92.0613 107.944 100.936 107.944C112.2 107.944 122.099 109.821 130.632 113.576C139.165 117.16 145.992 122.195 151.112 128.68C153.331 131.24 154.269 133.885 153.928 136.616C153.757 139.347 152.392 141.651 149.832 143.528C147.272 145.064 144.285 145.576 140.872 145.064C137.629 144.552 134.899 143.101 132.68 140.712C128.413 136.275 123.635 133.203 118.344 131.496C113.224 129.619 107.251 128.68 100.424 128.68C92.232 128.68 85.4053 130.216 79.944 133.288C74.6533 136.36 72.008 140.541 72.008 145.832C72.008 149.245 72.8613 152.232 74.568 154.792C76.4453 157.352 79.8587 159.741 84.808 161.96C89.7573 164.008 96.84 165.885 106.056 167.592C118.856 169.981 128.925 173.139 136.264 177.064C143.773 180.989 149.149 185.597 152.392 190.888C155.635 196.179 157.256 202.152 157.256 208.808C157.256 216.659 155.037 223.741 150.6 230.056C146.333 236.2 140.104 241.064 131.912 244.648C123.72 248.232 113.821 250.024 102.216 250.024ZM202.316 308.904C198.903 308.904 196.087 307.795 193.868 305.576C191.649 303.357 190.54 300.541 190.54 297.128V178.6C190.711 165.288 193.868 153.256 200.012 142.504C206.327 131.752 214.775 123.304 225.356 117.16C235.937 111.016 247.884 107.944 261.196 107.944C274.679 107.944 286.711 111.101 297.292 117.416C308.044 123.56 316.492 132.008 322.636 142.76C328.951 153.341 332.108 165.459 332.108 179.112C332.108 192.595 329.121 204.712 323.148 215.464C317.345 226.216 309.409 234.664 299.34 240.808C289.271 246.952 277.921 250.024 265.292 250.024C254.54 250.024 244.812 247.805 236.108 243.368C227.404 238.931 220.065 232.957 214.092 225.448V297.128C214.092 300.541 212.983 303.357 210.764 305.576C208.716 307.795 205.9 308.904 202.316 308.904ZM261.196 229.032C270.241 229.032 278.348 226.899 285.516 222.632C292.855 218.195 298.572 212.221 302.668 204.712C306.935 197.032 309.068 188.499 309.068 179.112C309.068 169.555 306.935 161.021 302.668 153.512C298.572 145.832 292.855 139.859 285.516 135.592C278.348 131.155 270.241 128.936 261.196 128.936C252.151 128.936 243.959 131.155 236.62 135.592C229.452 140.029 223.82 146.003 219.724 153.512C215.628 161.021 213.58 169.555 213.58 179.112C213.58 188.499 215.628 197.032 219.724 204.712C223.82 212.221 229.452 218.195 236.62 222.632C243.959 226.899 252.151 229.032 261.196 229.032ZM403.04 249C395.872 249 389.472 247.037 383.84 243.112C378.208 239.187 373.771 233.811 370.528 226.984C367.456 219.987 365.92 211.965 365.92 202.92V60.584C365.92 57.1707 366.944 54.44 368.992 52.392C371.211 50.1733 374.027 49.064 377.44 49.064C381.024 49.064 383.84 50.1733 385.888 52.392C388.107 54.44 389.216 57.1707 389.216 60.584V202.92C389.216 209.576 390.496 215.037 393.056 219.304C395.787 223.571 399.115 225.704 403.04 225.704H409.44C412.683 225.704 415.243 226.813 417.12 229.032C418.997 231.08 419.936 233.896 419.936 237.48C419.936 240.893 418.485 243.709 415.584 245.928C412.853 247.976 409.269 249 404.832 249H403.04ZM461.144 249C457.56 249 454.659 247.891 452.44 245.672C450.221 243.453 449.112 240.637 449.112 237.224V120.744C449.112 117.16 450.221 114.344 452.44 112.296C454.659 110.077 457.56 108.968 461.144 108.968C464.557 108.968 467.373 110.077 469.592 112.296C471.811 114.344 472.92 117.16 472.92 120.744V237.224C472.92 240.637 471.811 243.453 469.592 245.672C467.373 247.891 464.557 249 461.144 249ZM460.888 84.648C456.621 84.648 452.952 83.112 449.88 80.04C446.808 76.968 445.272 73.2133 445.272 68.776C445.272 64.3387 446.808 60.6693 449.88 57.768C453.123 54.696 456.877 53.16 461.144 53.16C465.24 53.16 468.824 54.696 471.896 57.768C475.139 60.6693 476.76 64.3387 476.76 68.776C476.76 73.2133 475.224 76.968 472.152 80.04C469.08 83.112 465.325 84.648 460.888 84.648ZM574.52 249C565.816 249 557.965 246.867 550.968 242.6C543.971 238.163 538.509 232.275 534.584 224.936C530.659 217.427 528.696 208.893 528.696 199.336V76.2C528.696 72.7867 529.72 69.9707 531.768 67.752C533.987 65.5333 536.803 64.424 540.216 64.424C543.629 64.424 546.445 65.5333 548.664 67.752C550.883 69.9707 551.992 72.7867 551.992 76.2V199.336C551.992 207.016 554.125 213.331 558.392 218.28C562.659 223.229 568.035 225.704 574.52 225.704H582.456C585.357 225.704 587.747 226.813 589.624 229.032C591.672 231.251 592.696 234.067 592.696 237.48C592.696 240.893 591.416 243.709 588.856 245.928C586.467 247.976 583.309 249 579.384 249H574.52ZM514.872 134.312C511.8 134.312 509.24 133.373 507.192 131.496C505.144 129.619 504.12 127.229 504.12 124.328C504.12 121.256 505.144 118.781 507.192 116.904C509.24 115.027 511.8 114.088 514.872 114.088H576.568C579.64 114.088 582.2 115.027 584.248 116.904C586.296 118.781 587.32 121.256 587.32 124.328C587.32 127.229 586.296 129.619 584.248 131.496C582.2 133.373 579.64 134.312 576.568 134.312H514.872Z" fill="white"/>
<path d="M668.822 249.512C651.755 249.512 638.87 246.611 630.166 240.808C621.462 234.835 617.11 224.083 617.11 208.552C620.523 123.219 625.985 82.5147 633.494 86.44C637.249 86.6107 639.126 92.4133 639.126 103.848C639.126 110.845 637.931 125.608 635.542 148.136C632.47 174.077 630.934 193.107 630.934 205.224L631.19 212.648C631.19 216.403 632.299 220.157 634.518 223.912C636.907 227.667 639.894 229.715 643.478 230.056L693.654 234.408C695.531 234.579 696.47 236.371 696.47 239.784C696.47 242.856 695.702 244.989 694.166 246.184C692.801 247.379 690.326 248.317 686.742 249L668.822 249.512ZM797.62 101.8C797.62 100.947 798.644 100.179 800.692 99.496C802.74 98.6427 804.703 98.216 806.58 98.216C807.945 98.216 808.969 98.5573 809.652 99.24C810.335 99.752 810.335 100.605 809.652 101.8C808.287 104.531 805.215 110.333 800.436 119.208C793.268 132.52 787.551 144.125 783.284 154.024C779.017 163.923 775.348 175.955 772.276 190.12C769.204 204.285 767.668 220.499 767.668 238.76L767.924 253.352C767.924 255.059 767.156 256.339 765.62 257.192C764.255 258.045 762.463 258.472 760.244 258.472C758.537 258.472 757.428 258.216 756.916 257.704C756.575 257.192 756.404 256.424 756.404 255.4C756.404 254.376 756.404 253.608 756.404 253.096C755.892 246.44 755.636 240.125 755.636 234.152C755.636 220.669 756.831 207.784 759.22 195.496C748.98 182.867 740.617 172.115 734.132 163.24C727.817 154.195 721.844 144.211 716.212 133.288C710.58 122.365 705.289 109.736 700.34 95.4C700.681 95.5707 702.388 95.4853 705.46 95.144C708.532 94.8027 710.239 94.632 710.58 94.632L718.772 110.248C728.5 128.68 736.265 142.76 742.068 152.488C747.871 162.045 754.697 171.347 762.548 180.392C766.132 166.739 770.484 154.451 775.604 143.528C780.895 132.435 787.124 120.488 794.292 107.688L797.62 101.8ZM840.624 249C837.552 249 834.821 247.635 832.432 244.904C830.213 242.003 828.421 238.675 827.056 234.92C825.861 230.995 825.264 227.667 825.264 224.936C825.264 219.475 826.032 214.952 827.568 211.368C829.275 207.613 831.237 204.968 833.456 203.432C835.675 201.725 837.723 200.872 839.6 200.872C845.573 200.872 850.352 203.773 853.936 209.576C857.52 215.208 859.312 221.267 859.312 227.752C859.312 230.312 858.288 233.299 856.24 236.712C854.363 240.125 851.973 243.027 849.072 245.416C846.171 247.805 843.355 249 840.624 249Z" fill="#EF971A"/>
</svg>
