<svg width="205" height="277" viewBox="0 0 205 277" fill="none" xmlns="http://www.w3.org/2000/svg">
<path d="M204.983 184.253C204.157 213.872 171.522 222.388 146.695 237.576C121.867 252.765 80.4628 284.493 56.0149 275.386C31.5671 266.279 0.546274 218.551 0.00764024 182.936C-0.530994 147.321 27.5094 82.2077 52.7831 61.6954C78.0569 41.183 126.284 39.4354 151.65 59.8617C177.017 80.2879 205.809 154.634 204.983 184.253C204.157 213.872 171.522 222.388 146.695 237.576Z" fill="#EF971A"/>
<path d="M102.216 226.024C90.952 226.024 80.2853 224.317 70.216 220.904C60.1467 217.32 52.2107 212.456 46.408 206.312C44.1893 203.752 43.2507 200.936 43.592 197.864C43.9333 194.792 45.4693 192.147 48.2 189.928C51.1013 187.709 54.088 186.771 57.16 187.112C60.232 187.453 62.792 188.819 64.84 191.208C68.2533 194.963 73.2027 198.205 79.688 200.936C86.344 203.667 93.5973 205.032 101.448 205.032C112.541 205.032 120.733 203.24 126.024 199.656C131.485 195.901 134.301 191.293 134.472 185.832C134.472 180.2 131.827 175.507 126.536 171.752C121.245 167.827 111.944 164.755 98.632 162.536C81.3947 159.293 68.8507 154.259 61 147.432C53.1493 140.605 49.224 132.328 49.224 122.6C49.224 113.896 51.6133 106.728 56.392 101.096C61.3413 95.2933 67.7413 91.0267 75.592 88.296C83.6133 85.3947 92.0613 83.944 100.936 83.944C112.2 83.944 122.099 85.8213 130.632 89.576C139.165 93.16 145.992 98.1947 151.112 104.68C153.331 107.24 154.269 109.885 153.928 112.616C153.757 115.347 152.392 117.651 149.832 119.528C147.272 121.064 144.285 121.576 140.872 121.064C137.629 120.552 134.899 119.101 132.68 116.712C128.413 112.275 123.635 109.203 118.344 107.496C113.224 105.619 107.251 104.68 100.424 104.68C92.232 104.68 85.4053 106.216 79.944 109.288C74.6533 112.36 72.008 116.541 72.008 121.832C72.008 125.245 72.8613 128.232 74.568 130.792C76.4453 133.352 79.8587 135.741 84.808 137.96C89.7573 140.008 96.84 141.885 106.056 143.592C118.856 145.981 128.925 149.139 136.264 153.064C143.773 156.989 149.149 161.597 152.392 166.888C155.635 172.179 157.256 178.152 157.256 184.808C157.256 192.659 155.037 199.741 150.6 206.056C146.333 212.2 140.104 217.064 131.912 220.648C123.72 224.232 113.821 226.024 102.216 226.024Z" fill="white"/>
</svg>
